<?xml version="1.0" encoding="utf-8"?>
<!-- Generator: Adobe Illustrator 28.1.0, SVG Export Plug-In . SVG Version: 6.00 Build 0)  -->
<svg version="1.1" id="Layer_1" xmlns="http://www.w3.org/2000/svg" xmlns:xlink="http://www.w3.org/1999/xlink" x="0px" y="0px"
	 viewBox="0 0 2967.1 3271.1" style="enable-background:new 0 0 2967.1 3271.1;" xml:space="preserve">
<style type="text/css">
	.st0{fill:#16161D;stroke:#16161D;stroke-width:0.5226;stroke-miterlimit:10;}
	.st1{fill:#16161D;stroke:#16161D;stroke-width:42.3296;stroke-miterlimit:10;}
	.st2{fill:#16161D;stroke:#16161D;stroke-miterlimit:10;}
</style>
<g id="Layer_1_00000112600746391552950120000012534702429984932747_">
	<g>
		<path class="st0" d="M1933.1,2893.6c-28.9-28.7-40.4-61.4-45.6-81.6c-19.2-75.4,27.4-137.4,14.9-219.5
			c-28.6-188.7-903.8-1079.1-1300.3-1483.1c-198.5,537.4-138.4,868.7-46.2,1072.2c68.4,151,229.4,309.4,179.6,498.6
			c-38.7,147-175.1,219.9-181.2,223c-129.6,66.8-276,28.6-405.6-5.2c-68.2-17.8-148-47.3-147.6-48.7c0.3-0.8,26.4,7.4,42.3,11.2
			c101,24,254.8-18.9,336.3-135.3c45.7-65.2,53-131.2,54.4-146.2c11-117.9-51.8-195.2-115.3-315.1
			c-63.3-119.7-97.4-235.2-109.7-346.7c-29.8-270.5,79.6-504.7,230-811.4c22.2-45.3,41.6-81.9,54.2-105.2
			C452.1,958.9,391.9,896.1,322,816.9C95.6,559.6,78.8,481.4,73.8,439.7c-2.4-20.2-15-140.5,57.6-253.3
			c45.9-71.3,106.5-109.7,136.9-128.1C325.3,24,378.8,8.9,414.7,1.7C418.6,0.9,312.1,19,251.2,99c-73.6,96.7-38.7,230.7-36.2,239.6
			c12.2,44.2,31.7,72.7,69.2,127.4c50.5,73.8,100.2,119.7,125.4,147.5c132.2,145.3,198.4,218,210.9,230.9
			c358.4,367.8,823.2,886.8,844.4,868.2c0.2-0.1,0.4-0.4,0.6-0.9c7-37.7,13.9-75.4,20.9-113c24.3-140.9,46.8-282.1,67.4-423.5
			c19.5-134,37.4-268.2,53.7-402.7c-2.6-8.9-26.1-37.7-56.4-69.1c-93.9-97.3-135.7-151.7-165.5-214.5
			C1288,274.1,1466.4,15.8,1691.2,0.5c-23.5,2.9-99,15.2-148.8,78.2c-62.6,79.2-39.2,181.2-33.8,204.5
			c27.7,120.7,144,186.6,280.3,321.6c50.6,50.1,93.3,87.1,133.9,139.5c76.6,113.5,88.2,251.1,35.1,386.5
			c-48,129.9-211.2,218.6-265.5,224.8c-1.2-2.9,88.2-15.4,131-86.4c20.1-33.4,24.5-66.7,27.3-88.5c1.6-12.4,6.6-59.5-10.5-118.1
			c-18-61.5-68.5-163.2-108.2-158.1c-44.9,5.8-60.5,146.4-95.9,530.8c-10,108.6-24.1,263.5-40.5,451.7
			c111.3,122.1,202.7,230.1,272.9,315.9c200.9,245.5,219.5,299,228.6,347c16.5,87.6-0.2,142.9,47.7,229.4
			c10.4,18.8,65.7,118.5,153.3,128.5c32.7,3.7,57.7-6.4,58.1-4.6c0.8,3.6-102.3,43.2-229.9,41.8
			C2052.3,2944.1,1983.2,2943.3,1933.1,2893.6z"/>
		<g>
			<path class="st1" d="M2663.4,2450.5c368.4-9.2,390.3,744.7-19.5,747.7C2287.7,3211.4,2259.8,2451.8,2663.4,2450.5z
				 M2720.9,2493.7c-274.2-16.7-443.3,616.8-138.7,661.2C2877.8,3163.5,3040.6,2530.7,2720.9,2493.7z"/>
		</g>
		<path class="st2" d="M2899.6,2426.4c-13.1,41.7,21.4,81.6,4,113.7c-5.7,7.3-11.2,14.6-16.6,21.7c-47,62.6-82,118-125.8,176.8
			c-14.6,19.7-0.9,1-250,350.6c-1.3,1.8-22.9,32.2-45.6,64c0,0-7.9,17.6-9.1,21c-7.8,21.9-7.8,37.6-9.9,43.4
			c-6.9,18.8-29.5,40.3-98.8,51.4c136.7-39.1,20.6-121.3,72.8-173.3c61.7-85.7,120.9-169.8,180.1-253.5
			c31.6-44.7,63.2-89.3,95.2-134c24.7-35.4,100.3-140.2,135.8-191.2l0.3-0.5c4.6-6.6,8.5-12.2,11.5-16.7
			c40.9-57.3-13.9-95.2,122.5-120.2C2919.2,2393.1,2904.4,2411.7,2899.6,2426.4z"/>
	</g>
</g>
</svg>
