<svg xmlns="http://www.w3.org/2000/svg" xmlns:xlink="http://www.w3.org/1999/xlink" version="1.1" x="0px" y="0px" viewBox="0 0 512 640" style="enable-background:new 0 0 512 512;" xml:space="preserve"><g><g><g><g><path d="M141,476H41c-2.761,0-5-2.238-5-5V41c0-2.761,2.239-5,5-5h100c2.761,0,5,2.239,5,5v430C146,473.762,143.761,476,141,476      z M46,466h90V46H46V466z"/></g><g><path d="M471,476H141c-2.761,0-5-2.238-5-5V41c0-2.761,2.239-5,5-5h330c2.762,0,5,2.239,5,5v430      C476,473.762,473.762,476,471,476z M146,466h320V46H146V466z"/></g><g><path d="M471,476H41c-2.761,0-5-2.238-5-5V371c0-2.762,2.239-5,5-5h430c2.762,0,5,2.238,5,5v100      C476,473.762,473.762,476,471,476z M46,466h420v-90H46V466z"/></g><g><path d="M141,336H41c-2.761,0-5-2.238-5-5s2.239-5,5-5h100c2.761,0,5,2.238,5,5S143.761,336,141,336z"/></g><g><path d="M141,296H41c-2.761,0-5-2.238-5-5s2.239-5,5-5h100c2.761,0,5,2.238,5,5S143.761,296,141,296z"/></g><g><path d="M141,256H41c-2.761,0-5-2.239-5-5s2.239-5,5-5h100c2.761,0,5,2.239,5,5S143.761,256,141,256z"/></g><g><path d="M141,216H41c-2.761,0-5-2.239-5-5s2.239-5,5-5h100c2.761,0,5,2.239,5,5S143.761,216,141,216z"/></g><g><path d="M141,176H41c-2.761,0-5-2.239-5-5s2.239-5,5-5h100c2.761,0,5,2.239,5,5S143.761,176,141,176z"/></g><g><path d="M141,136H41c-2.761,0-5-2.239-5-5s2.239-5,5-5h100c2.761,0,5,2.239,5,5S143.761,136,141,136z"/></g><g><path d="M71,76c-1.31,0-2.6-0.53-3.53-1.47C66.53,73.6,66,72.32,66,71c0-1.32,0.53-2.6,1.47-3.53C68.4,66.53,69.68,66,71,66      c1.32,0,2.6,0.53,3.53,1.47C75.47,68.4,76,69.69,76,71c0,1.32-0.53,2.6-1.47,3.53C73.6,75.47,72.32,76,71,76z"/></g><g><path d="M111,106c-1.32,0-2.6-0.53-3.54-1.46c-0.93-0.94-1.46-2.22-1.46-3.54c0-1.32,0.53-2.6,1.46-3.54      C108.4,96.53,109.68,96,111,96c1.32,0,2.6,0.53,3.54,1.46c0.93,0.94,1.46,2.23,1.46,3.54c0,1.32-0.53,2.6-1.46,3.54      C113.6,105.47,112.32,106,111,106z"/></g><g><path d="M421,446h-40c-2.762,0-5-2.238-5-5v-25h-20v15c0,2.762-2.238,5-5,5h-40c-2.762,0-5-2.238-5-5v-25h-30v35      c0,2.762-2.238,5-5,5h-40c-2.761,0-5-2.238-5-5v-35h-20v15c0,2.762-2.239,5-5,5h-30c-2.761,0-5-2.238-5-5s2.239-5,5-5h25v-15      c0-2.762,2.239-5,5-5h30c2.761,0,5,2.238,5,5v35h30v-35c0-2.762,2.238-5,5-5h40c2.762,0,5,2.238,5,5v25h30v-15      c0-2.762,2.238-5,5-5h30c2.762,0,5,2.238,5,5v25h30v-35c0-2.762,2.238-5,5-5h20c2.762,0,5,2.238,5,5s-2.238,5-5,5h-15v35      C426,443.762,423.762,446,421,446z"/></g></g><rect x="61" y="391" width="20" height="20"/><rect x="81" y="411" width="20" height="20"/><rect x="171" y="71" width="40" height="20"/><rect x="271" y="71" width="40" height="20"/><rect x="341" y="71" width="40" height="20"/><rect x="401" y="71" width="40" height="20"/><rect x="171" y="111" width="40" height="20"/><rect x="231" y="111" width="40" height="20"/><rect x="341" y="111" width="40" height="20"/><rect x="401" y="111" width="40" height="20"/><rect x="291" y="151" width="40" height="20"/><rect x="171" y="191" width="40" height="20"/><rect x="241" y="191" width="40" height="20"/><rect x="321" y="191" width="40" height="20"/><rect x="401" y="191" width="40" height="20"/><rect x="351" y="231" width="40" height="20"/><rect x="171" y="271" width="40" height="20"/><rect x="251" y="271" width="40" height="20"/><rect x="331" y="271" width="40" height="20"/><rect x="401" y="271" width="40" height="20"/><rect x="171" y="311" width="40" height="20"/><rect x="291" y="311" width="40" height="20"/><rect x="351" y="311" width="40" height="20"/><rect x="101" y="431" width="20" height="20"/></g></g><text x="0" y="527" fill="#000000" font-size="5px" font-weight="bold" font-family="'Helvetica Neue', Helvetica, Arial-Unicode, Arial, Sans-serif">Created by Flatart</text><text x="0" y="532" fill="#000000" font-size="5px" font-weight="bold" font-family="'Helvetica Neue', Helvetica, Arial-Unicode, Arial, Sans-serif">from the Noun Project</text></svg>