<?xml version="1.0" encoding="utf-8"?>
<!-- Generator: Adobe Illustrator 28.1.0, SVG Export Plug-In . SVG Version: 6.00 Build 0)  -->
<svg version="1.1" id="Layer_1" xmlns="http://www.w3.org/2000/svg" xmlns:xlink="http://www.w3.org/1999/xlink" x="0px" y="0px"
	 viewBox="0 0 1197.2 326.9" style="enable-background:new 0 0 1197.2 326.9;" xml:space="preserve">
<style type="text/css">
	.st0{fill:#17171E;}
	.st1{fill:#17181E;stroke:#17181E;stroke-width:5.225876e-02;stroke-miterlimit:10;}
	.st2{fill:#17181E;stroke:#17181E;stroke-width:4.233;stroke-miterlimit:10;}
	.st3{fill:#17181E;}
</style>
<g id="Layer_5">
	<g>
		<g>
			<path class="st0" d="M275,107.6h35.7l41,113.6h-32l-6.4-18.7h-41l-6.4,18.7H234L275,107.6z M305.1,178.1l-12.2-36l-12.3,36H305.1
				z"/>
			<path class="st0" d="M362,107.6h31.4v107L375.5,196h67.4v25.1H362V107.6z"/>
			<path class="st0" d="M537.4,107.6v25.1h-52.8v19h50.9v25h-50.9V196h54.1v25.1h-85.4V107.6H537.4z"/>
			<path class="st0" d="M623.8,112.3c6.9,3.1,12.2,7.7,15.9,13.5c3.7,5.9,5.5,12.7,5.5,20.6c0,7.9-1.8,14.7-5.5,20.6
				c-3.7,5.8-9,10.3-15.9,13.4c-6.9,3.1-15.1,4.7-24.5,4.7H582v36h-31.4V107.6h48.6C608.7,107.6,616.8,109.1,623.8,112.3z
				 M608.8,156.5c2.9-2.3,4.4-5.7,4.4-10.1c0-4.4-1.5-7.8-4.4-10.2s-6.9-3.6-11.9-3.6H582V160h14.9
				C601.9,160,605.9,158.9,608.8,156.5z"/>
			<path class="st0" d="M656.4,107.6h31.4v53l-13.3-9.1h60.3l-13.3,9.1v-53h31.4v113.6h-31.4v-53.6l13.3,9h-60.3l13.3-9v53.6h-31.4
				V107.6z"/>
			<path class="st0" d="M830.8,107.6l37.6,64.8v-64.8h31.5v113.6h-32.8l-36.8-61.6v61.6H799V107.6H830.8z"/>
			<path class="st0" d="M1006.3,202.8c-4.1,6.7-9.8,11.9-17.3,15.5s-16.2,5.4-26.2,5.4s-18.8-1.8-26.2-5.4
				c-7.5-3.6-13.2-8.8-17.2-15.5s-6-14.6-6-23.5v-71.8h31.4v71.8c0,6.4,1.6,11.2,4.7,14.5c3.1,3.3,7.6,4.9,13.4,4.9
				s10.2-1.6,13.4-4.9c3.1-3.3,4.7-8.1,4.7-14.5v-71.8h31.5v71.8C1012.4,188.2,1010.4,196,1006.3,202.8z"/>
			<path class="st0" d="M1025.9,107.6h31.4v107l-17.9-18.6h67.4v25.1H1026L1025.9,107.6L1025.9,107.6z"/>
			<path class="st0" d="M1117.1,107.6h31.4v107l-17.9-18.6h67.4v25.1h-80.8L1117.1,107.6L1117.1,107.6z"/>
		</g>
	</g>
</g>
<g id="Layer_4">
	<g>
		<path class="st1" d="M193.2,289.4c-2.9-2.9-4-6.1-4.6-8.2c-1.9-7.5,2.7-13.7,1.5-22c-2.9-18.9-90.4-107.9-130-148.3
			c-19.9,53.7-13.8,86.9-4.6,107.2c6.8,15.1,22.9,30.9,18,49.9c-3.9,14.7-17.5,22-18.1,22.3c-13,6.7-27.6,2.9-40.6-0.5
			C8,288,0,285.1,0,284.9c0-0.1,2.6,0.7,4.2,1.1c10.1,2.4,25.5-1.9,33.6-13.5c4.6-6.5,5.3-13.1,5.4-14.6
			c1.1-11.8-5.2-19.5-11.5-31.5s-9.7-23.5-11-34.7c-3-27,8-50.5,23-81.1c2.2-4.5,4.2-8.2,5.4-10.5C45,95.9,39,89.7,32,81.7
			C9.5,56,7.8,48.1,7.3,44c-0.2-2-1.5-14.1,5.8-25.3c4.6-7.1,10.6-11,13.7-12.8c5.7-3.4,11-4.9,14.6-5.7C41.8,0.1,31.1,1.9,25,9.9
			c-7.4,9.7-3.9,23.1-3.6,24c1.2,4.4,3.2,7.3,6.9,12.7c5.1,7.4,10,12,12.5,14.7C54.1,75.9,60.7,83.2,62,84.4
			c35.8,36.8,82.3,88.7,84.4,86.8c0,0,0,0,0.1-0.1c0.7-3.8,1.4-7.5,2.1-11.3c2.4-14.1,4.7-28.2,6.7-42.3c2-13.4,3.7-26.8,5.4-40.3
			c-0.3-0.9-2.6-3.8-5.6-6.9c-9.4-9.7-13.6-15.2-16.5-21.5c-9.8-21.5,8.1-47.3,30.6-48.8c-2.4,0.3-9.9,1.5-14.9,7.8
			c-6.3,7.9-3.9,18.1-3.4,20.5c2.8,12.1,14.4,18.7,28,32.2c5.1,5,9.3,8.7,13.4,13.9c7.7,11.4,8.8,25.1,3.5,38.6
			c-4.8,13-21.1,21.9-26.5,22.5c-0.1-0.3,8.8-1.5,13.1-8.6c2-3.3,2.5-6.7,2.7-8.8c0.2-1.2,0.7-5.9-1.1-11.8
			c-1.8-6.2-6.9-16.3-10.8-15.8c-4.5,0.6-6.1,14.6-9.6,53.1c-1,10.9-2.4,26.3-4.1,45.2c11.1,12.2,20.3,23,27.3,31.6
			c20.1,24.6,22,29.9,22.9,34.7c1.7,8.8,0,14.3,4.8,22.9c1,1.9,6.6,11.9,15.3,12.9c3.3,0.4,5.8-0.6,5.8-0.5c0.1,0.4-10.2,4.3-23,4.2
			C205.1,294.4,198.2,294.3,193.2,289.4z"/>
		<g>
			<path class="st2" d="M266.3,245.1c36.8-0.9,39,74.5-1.9,74.8C228.7,321.1,225.9,245.2,266.3,245.1z M272,249.4
				c-27.4-1.7-44.3,61.7-13.9,66.1C287.7,316.4,304,253.1,272,249.4z"/>
		</g>
		<path class="st3" d="M289.9,242.6c-1.3,4.2,2.1,8.2,0.4,11.4c-0.6,0.7-1.1,1.5-1.7,2.2c-4.7,6.3-8.2,11.8-12.6,17.7
			c-1.5,2-0.1,0.1-25,35.1c-0.1,0.2-2.3,3.2-4.6,6.4c0,0-0.8,1.8-0.9,2.1c-0.8,2.2-0.8,3.8-1,4.3c-0.7,1.9-2.9,4-9.9,5.1
			c13.7-3.9,2.1-12.1,7.3-17.3c6.2-8.6,12.1-17,18-25.4c3.2-4.5,6.3-8.9,9.5-13.4c2.5-3.5,10-14,13.6-19.1l0,0
			c0.5-0.7,0.8-1.2,1.1-1.7c4.1-5.7-1.4-9.5,12.2-12C291.8,239.3,290.4,241.2,289.9,242.6z"/>
	</g>
</g>
</svg>
